<?xml version="1.0" standalone="no"?>
<!DOCTYPE svg PUBLIC "-//W3C//DTD SVG 20010904//EN"
 "http://www.w3.org/TR/2001/REC-SVG-20010904/DTD/svg10.dtd">
<svg version="1.0" xmlns="http://www.w3.org/2000/svg"
 width="700.000000pt" height="700.000000pt" viewBox="0 0 700.000000 700.000000"
 preserveAspectRatio="xMidYMid meet">
<metadata>
Created by potrace 1.14, written by Peter Selinger 2001-2017
</metadata>
<g transform="translate(0.000000,700.000000) scale(0.100000,-0.100000)"
fill="#000000" stroke="none">
<path d="M2590 4655 c0 -10 10 -15 28 -15 46 -1 109 -36 136 -77 14 -21 33
-69 43 -108 17 -65 18 -142 18 -1065 0 -923 -1 -1000 -18 -1065 -30 -118 -74
-166 -166 -181 -25 -4 -41 -12 -41 -20 0 -12 59 -14 345 -14 287 0 345 2 345
14 0 9 -16 16 -44 20 -86 13 -132 62 -161 171 -22 83 -38 468 -33 835 3 292 3
296 28 344 32 63 65 88 129 94 64 6 128 -15 229 -74 186 -111 282 -144 413
-144 42 0 98 7 126 15 102 30 186 122 199 218 8 56 -9 64 -26 12 -16 -50 -69
-91 -133 -105 -80 -16 -166 1 -341 70 -180 70 -249 85 -357 77 -96 -6 -172
-39 -230 -100 l-39 -39 0 561 0 561 288 0 c400 0 621 -23 800 -84 146 -50 244
-126 258 -201 3 -20 11 -34 18 -32 8 3 11 56 11 173 l0 169 -912 3 c-807 2
-913 0 -913 -13z"/>
</g>
</svg>
